<?xml version="1.0" standalone="no"?>
<!DOCTYPE svg PUBLIC "-//W3C//DTD SVG 20010904//EN"
 "http://www.w3.org/TR/2001/REC-SVG-20010904/DTD/svg10.dtd">
<svg version="1.0" xmlns="http://www.w3.org/2000/svg"
 width="260.000000pt" height="260.000000pt" viewBox="0 0 260.000000 260.000000"
 preserveAspectRatio="xMidYMid meet">
<metadata>
Created by potrace 1.14, written by Peter Selinger 2001-2017
</metadata>
<g transform="translate(0.000000,260.000000) scale(0.100000,-0.100000)"
fill="#000000" stroke="none">
<path d="M1260 2101 l-1065 -136 3 -25 c1 -14 8 -71 15 -128 16 -119 29 -104
-112 -122 -46 -5 -86 -12 -89 -15 -6 -5 170 -1403 178 -1415 4 -7 2199 266
2208 275 2 1 -4 58 -13 125 -9 67 -14 124 -12 126 2 3 50 10 105 17 56 8 104
15 106 18 2 2 -36 317 -85 699 -49 382 -89 701 -89 708 0 8 -15 12 -42 11 -24
-1 -522 -63 -1108 -138z m1132 -578 c43 -334 76 -609 74 -611 -7 -7 -1950
-253 -1976 -250 l-24 3 -77 600 c-42 330 -75 602 -72 605 3 3 1867 246 1988
259 6 1 42 -245 87 -606z"/>
<path d="M1785 1874 c-30 -33 -32 -67 -10 -269 30 -285 16 -420 -49 -470 -60
-45 -156 -25 -156 34 0 72 -52 113 -111 88 -53 -22 -63 -39 -55 -101 10 -92
40 -141 106 -177 17 -10 57 -13 127 -13 95 2 104 4 145 32 85 58 139 132 157
213 12 53 -13 628 -28 657 -22 41 -91 44 -126 6z"/>
<path d="M1143 1796 c-26 -22 -28 -30 -28 -93 0 -37 8 -152 18 -255 20 -201
16 -281 -18 -352 -26 -54 -62 -72 -137 -68 -29 2 -58 42 -58 80 0 11 -9 31
-21 46 -29 37 -85 36 -122 -2 -25 -26 -26 -30 -18 -88 21 -145 87 -192 253
-180 79 5 92 9 136 41 63 45 117 114 138 177 15 45 15 76 5 321 -14 319 -17
353 -42 378 -26 26 -72 24 -106 -5z"/>
</g>
</svg>
